<svg width="134" height="182" viewBox="0 0 134 182" fill="none" xmlns="http://www.w3.org/2000/svg">
<path fill-rule="evenodd" clip-rule="evenodd" d="M34.2458 49.4325L34.2499 49.4314C35.3807 49.1473 36.4478 48.7123 37.49 48.1731C37.5411 48.2909 37.5898 48.4062 37.6362 48.5191L37.6385 48.5247C37.9923 49.3557 38.3451 50.1872 38.698 51.0186L38.6984 51.0197C39.5535 53.0345 40.4085 55.0492 41.2754 57.0571L41.2761 57.0587C41.7398 58.1219 42.6222 58.7626 43.5953 58.8777C44.5686 58.9927 45.573 58.5747 46.2633 57.649C47.3898 56.138 48.696 54.7898 50.1482 53.5812L50.1497 53.5799C55.4703 49.1144 61.6081 46.8116 68.5452 46.55C71.1364 46.4549 73.7063 46.6567 76.2678 47.1092C76.5684 47.1683 76.8812 47.1655 77.1542 47.1531L77.1602 47.1529L77.1662 47.1524C78.4288 47.0637 79.5061 46.0298 79.6831 44.7966L79.6839 44.7901C79.855 43.47 79.1573 42.1711 77.8953 41.7373L77.8905 41.7357C77.6321 41.65 77.341 41.5959 77.0979 41.5507C77.0317 41.5384 76.969 41.5268 76.9116 41.5153L76.9067 41.5143L76.9018 41.5135C75.5252 41.2688 74.1388 41.1101 72.7435 41.0126C69.1045 40.7443 65.4942 40.9268 61.9159 41.7102C55.3342 43.1395 49.6159 46.1905 44.7696 50.8466C44.2049 49.5452 43.6513 48.2435 43.0968 46.9399L43.0968 46.9398L43.0963 46.9388C42.8783 46.4294 42.661 45.9161 42.443 45.4014C42.0704 44.5214 41.696 43.6372 41.3134 42.761L41.313 42.7603C41.0461 42.1518 40.6344 41.6745 40.1043 41.3742C39.5745 41.0742 38.9557 40.9676 38.3018 41.0513C37.554 41.1429 37.0236 41.5563 36.588 41.9405L36.5871 41.9412C34.2738 43.9908 31.626 44.7229 28.6442 43.9351C22.7842 42.3822 20.4392 35.4361 24.1625 30.6802C25.7048 28.7095 27.7098 27.6128 30.2272 27.4989L30.2283 27.4989C31.4336 27.4417 32.4776 26.6813 32.8345 25.5483C33.0442 24.9179 32.9746 24.3076 32.8307 23.7473C32.386 22.0114 32.2922 20.2529 32.5382 18.4802L32.5385 18.4783C33.4399 11.7888 38.8625 7.35822 44.2513 6.67112C45.7912 6.48253 47.2793 6.47282 48.7465 6.73941C51.9233 7.32304 54.5774 8.82413 56.7237 11.2403L56.7253 11.2421L56.7273 11.2444L56.7273 11.2445C56.8815 11.4216 57.0486 11.6135 57.2305 11.7945L57.2326 11.7967C58.4187 12.9628 60.3638 12.8461 61.4029 11.5365C62.2413 10.4953 62.2151 9.07587 61.3808 8.01626L61.3768 8.01125C61.1436 7.72302 60.8934 7.43767 60.654 7.16476C62.8459 6.1466 65.1415 5.82019 67.5065 6.25661C73.6378 7.39181 77.4319 12.9923 76.6897 18.6277C76.1189 22.9303 73.7837 25.9394 69.7874 27.696L69.7838 27.6976C68.4889 28.2794 67.1014 28.5134 65.6516 28.5603L65.65 28.5603C64.87 28.5881 64.1513 28.8441 63.5965 29.471L63.5939 29.474C62.8565 30.321 62.6217 31.3466 63.0767 32.4279L63.0771 32.4287C63.3009 32.958 63.6304 33.3899 64.0697 33.6915C64.5093 33.9933 65.0307 34.1453 65.607 34.1593L65.6099 34.1593C66.9833 34.1844 68.3352 33.9836 69.6369 33.6627L69.6388 33.6623C78.9399 31.3288 84.5508 21.693 81.7021 12.5511C80.6363 9.12729 78.8928 6.40482 76.5052 4.40093C74.1186 2.39787 71.1141 1.13429 67.5587 0.586452L67.556 0.586049C65.7854 0.323521 63.9954 0.411735 62.2623 0.771492C60.0081 1.22051 57.8482 1.9878 55.9688 3.45819L55.7303 3.33036L55.7286 3.32945C51.583 1.06871 47.1681 0.37582 42.5273 1.24052L42.5258 1.2408C40.4425 1.63584 38.4353 2.3415 36.6092 3.44957C30.2893 7.24953 26.9885 12.8526 26.7774 20.2085C26.754 20.8979 26.7515 21.6284 26.8657 22.3588C26.7984 22.3759 26.7389 22.3946 26.7048 22.4054C26.6934 22.409 26.6848 22.4117 26.6797 22.4132L26.6736 22.4149L26.6675 22.4168C19.33 24.7143 15.3239 32.1868 17.194 39.3718C18.6887 45.172 23.8346 49.4813 29.9958 49.8192C31.4394 49.9066 32.8566 49.7688 34.2458 49.4325ZM32.0913 49.3041C31.4081 49.3671 30.7189 49.379 30.0236 49.3369C24.0729 49.0111 19.1039 44.8486 17.6616 39.2504C15.8558 32.3129 19.722 25.0979 26.8119 22.8779C26.8337 22.8717 26.8562 22.8647 26.8793 22.8576C26.9464 22.8368 27.0185 22.8145 27.0907 22.8055C27.3452 22.7572 27.4058 22.6004 27.3573 22.3711C27.2361 21.6593 27.2361 20.9354 27.2603 20.2235C27.4664 13.0327 30.6781 7.5792 36.859 3.86311C38.6285 2.78931 40.5797 2.10159 42.6158 1.7155C43.2654 1.59447 43.9103 1.50465 44.5503 1.4461C43.9124 1.50467 43.2698 1.59428 42.6224 1.7149C40.5863 2.10099 38.6351 2.78871 36.8656 3.86251C30.6846 7.57859 27.4729 13.0321 27.2669 20.2229C27.2427 20.9348 27.2427 21.6587 27.3639 22.3705C27.4123 22.5998 27.3517 22.7566 27.0972 22.8049C27.0251 22.8139 26.953 22.8362 26.8859 22.857C26.8628 22.8641 26.8402 22.8711 26.8185 22.8773C19.7285 25.0973 15.8624 32.3123 17.6682 39.2498C19.1104 44.848 24.0795 49.0105 30.0302 49.3363C30.7232 49.3783 31.4103 49.3666 32.0913 49.3041ZM56.0147 3.98277C56.0732 3.97826 56.1319 3.95114 56.1963 3.8987C58.0142 2.45088 60.123 1.69077 62.3652 1.24436C62.9502 1.12285 63.5411 1.03335 64.1348 0.978893C63.5389 1.03329 62.9458 1.123 62.3586 1.24496C60.1165 1.69137 58.0077 2.45148 56.1897 3.89931C56.1278 3.94978 56.071 3.97679 56.0147 3.98277ZM67.0413 33.6222C66.5716 33.665 66.0993 33.6843 65.6253 33.6756C64.6315 33.6515 63.9165 33.1568 63.5286 32.2399C63.1529 31.3471 63.3347 30.5145 63.9649 29.7906C64.3713 29.3314 64.8872 29.11 65.4855 29.0546C64.8844 29.109 64.3662 29.3303 63.9584 29.7912C63.3281 30.5152 63.1463 31.3477 63.5221 32.2405C63.9099 33.1574 64.6249 33.6521 65.6187 33.6762C66.0949 33.6849 66.5695 33.6654 67.0413 33.6222ZM66.5826 28.9873C67.7553 28.8801 68.8987 28.6273 69.9884 28.1377C74.1332 26.3159 76.5814 23.1668 77.1753 18.6906C77.9509 12.8028 73.9878 6.96327 67.6008 5.78088C66.5316 5.58356 65.4758 5.53597 64.4373 5.63137C65.4737 5.53678 66.5272 5.58458 67.5942 5.78148C73.9812 6.96387 77.9443 12.8034 77.1687 18.6913C76.5748 23.1674 74.1267 26.3165 69.9818 28.1383C68.8941 28.627 67.753 28.8798 66.5826 28.9873ZM59.4163 12.1071C58.7624 12.1661 58.0858 11.9509 57.5779 11.4515C57.4083 11.2826 57.2507 11.1016 57.0931 10.9207C54.8753 8.42316 52.1241 6.86675 48.8397 6.26349C47.5114 6.02211 46.174 5.99981 44.8114 6.12515C46.1717 6.00049 47.507 6.0231 48.8331 6.26409C52.1175 6.86735 54.8687 8.42376 57.0866 10.9213C57.2441 11.1022 57.4017 11.2832 57.5714 11.4521C58.081 11.9532 58.7604 12.1681 59.4163 12.1071ZM37.7206 47.5054C37.7896 47.6552 37.8553 47.8019 37.9178 47.9453C37.9757 48.0781 38.0308 48.2082 38.0831 48.3355C38.4372 49.1673 38.7902 49.9992 39.1431 50.8308L39.1432 50.8311L39.1435 50.8317C39.9985 52.8462 40.8526 54.8589 41.719 56.8656C42.1968 57.9611 43.1633 58.4926 44.1174 58.4035C43.1655 58.4895 42.2023 57.958 41.7255 56.865C40.8591 54.8581 40.0049 52.8452 39.1499 50.8306C38.7969 49.9989 38.4438 49.1669 38.0897 48.3349C37.9806 48.0694 37.8594 47.7919 37.7261 47.5024C37.7243 47.5034 37.7224 47.5044 37.7206 47.5054ZM66.6825 46.186C67.2913 46.1302 67.9062 46.0906 68.5274 46.0672C71.1574 45.9707 73.7631 46.1758 76.3567 46.6343C76.5991 46.6825 76.8657 46.6825 77.1323 46.6705C77.1477 46.6694 77.163 46.6681 77.1784 46.6667C77.1652 46.6679 77.1521 46.6689 77.1389 46.6699C76.8723 46.6819 76.6056 46.6819 76.3633 46.6337C73.7697 46.1752 71.164 45.9701 68.534 46.0666C67.9106 46.0901 67.2934 46.1299 66.6825 46.186ZM66.2373 41.533C64.8255 41.6622 63.4195 41.8756 62.0192 42.1822C55.4625 43.6059 49.7785 46.6584 44.967 51.3276C44.9374 51.3538 44.9105 51.3854 44.8833 51.4171C44.8191 51.4924 44.7535 51.5692 44.6481 51.5803C44.7574 51.5717 44.8243 51.4933 44.8899 51.4165C44.9171 51.3847 44.944 51.3532 44.9736 51.327C49.7851 46.6578 55.4691 43.6053 62.0258 42.1816C63.4239 41.8755 64.8277 41.6623 66.2373 41.533ZM38.4736 41.5184C38.4388 41.5217 38.4037 41.5256 38.3684 41.5301C37.7746 41.6025 37.3383 41.9282 36.9141 42.3023C35.3367 43.6998 33.5951 44.52 31.7026 44.693C33.5926 44.5187 35.332 43.6988 36.9075 42.3029C37.3317 41.9288 37.768 41.6031 38.3619 41.5307C38.3993 41.5259 38.4366 41.5218 38.4736 41.5184ZM29.7608 27.0465C29.9073 27.0331 30.0555 27.023 30.2054 27.0162C30.2443 27.0144 30.2829 27.0117 30.3213 27.0081C30.2851 27.0114 30.2486 27.0139 30.212 27.0156C30.0598 27.0225 29.9095 27.0328 29.7608 27.0465Z" fill="#FF9800"/>
<path fill-rule="evenodd" clip-rule="evenodd" d="M92.076 68.1932C91.7132 74.5117 89.3797 79.9659 85.0269 84.5314C81.5327 88.1837 77.3009 90.5578 72.3678 91.6657C71.473 91.8605 70.5783 92.0187 69.6594 92.1039C69.5883 92.1039 69.5172 92.1011 69.4463 92.0982C69.1913 92.0878 68.938 92.0775 68.6921 92.2013C67.4951 92.2379 66.3102 92.25 65.1132 92.2013C64.9053 92.0776 64.6825 92.0878 64.4566 92.0982C64.3935 92.101 64.3302 92.1039 64.2668 92.1039C64.1459 92.0958 64.0291 92.0877 63.9162 92.0796C63.7348 91.9457 63.5172 91.97 63.2996 91.9944C55.1503 90.6673 49.0927 86.2845 44.873 79.1624C44.7416 79.2545 44.6183 79.3465 44.4967 79.4373L44.4967 79.4373C44.361 79.5386 44.2274 79.6383 44.0871 79.7346C43.6639 80.0146 43.2286 79.9538 42.9747 79.6007C42.7087 79.2355 42.7813 78.8094 43.2045 78.4928C44.0508 77.8516 44.9053 77.2226 45.7677 76.6058C46.1909 76.3014 46.6141 76.3623 46.8801 76.7275C47.134 77.0806 47.0494 77.531 46.6625 77.8476C46.6131 77.8837 46.5638 77.9182 46.515 77.9522L46.5149 77.9523L46.5149 77.9523C46.4323 78.0099 46.3516 78.0664 46.2756 78.1276C46.1667 78.2128 46.0579 78.298 45.9249 78.4076C46.6383 79.6129 47.4726 80.7208 48.4036 81.7434C51.4505 85.0914 55.1382 87.3802 59.5635 88.4029C59.6668 88.426 59.769 88.4565 59.871 88.4869L59.8711 88.4869C60.0914 88.5526 60.3115 88.6182 60.5428 88.6099C60.7 88.7194 60.8572 88.7438 61.0386 88.6951C61.1111 88.7032 61.1877 88.7113 61.2683 88.7194C61.498 88.8533 61.7398 88.8655 61.9937 88.8168C62.1469 88.833 62.3041 88.8452 62.4653 88.8533C62.5861 88.9529 62.7269 88.9519 62.8785 88.9509H62.8785L62.9248 88.9507C63.6583 88.9588 64.3918 88.9588 65.1253 88.9507L65.1715 88.9509H65.1715C65.3232 88.9519 65.4639 88.9529 65.5848 88.8533C72.7789 88.1837 78.3528 84.7992 82.2581 78.6876C84.4587 75.2422 85.4864 71.4194 85.4985 67.3166C85.4985 66.6479 85.4972 65.9792 85.4958 65.31V65.3087V65.3072C85.4931 63.9671 85.4904 62.6253 85.4985 61.278C85.5106 59.9875 86.0668 58.977 87.1912 58.3683C89.6578 57.0291 92.1243 58.977 92.1001 61.205C92.082 62.8942 92.0843 64.5833 92.0865 66.2725C92.0873 66.8356 92.088 67.3987 92.088 67.9618C91.9994 68.0349 91.9954 68.112 92.076 68.1932ZM60.1468 65.8771C59.5395 66.6378 58.7834 67.1087 57.7064 67.1087C56.8242 67.1208 56.0565 66.6619 55.4378 65.9012C54.0515 64.1867 54.063 61.313 55.4493 59.6105C56.7554 58.0046 58.8521 58.0167 60.1353 59.6226C61.4987 61.3371 61.5217 64.1505 60.1468 65.8771ZM58.3938 62.5929C58.4053 61.8684 57.9699 61.2768 57.3856 61.2043C56.7096 61.1319 56.1482 61.639 56.0795 62.3876C56.0107 63.1966 56.4919 63.8848 57.1679 63.9331C57.821 63.9935 58.3824 63.3656 58.3938 62.5929ZM70.3117 62.7079C70.2001 62.6747 70.1006 62.6451 70.0326 62.5306C70.0448 62.5245 70.0571 62.5121 70.0693 62.4998C70.0815 62.4874 70.0938 62.4751 70.106 62.4689C71.3416 61.9872 72.6139 61.7155 73.9474 61.7155C74.6691 61.7155 75.1952 61.2092 75.183 60.5546C75.1707 59.8136 74.559 59.3443 73.9107 59.3814C73.7499 59.3919 73.5891 59.4005 73.4283 59.4091C73.0263 59.4305 72.6244 59.4519 72.2224 59.5049C70.0448 59.8136 68.1119 60.6411 66.4481 62.1107C66.0077 62.4936 65.5918 62.9135 65.2737 63.4075C64.9312 63.9262 64.9679 64.4449 65.3349 64.8772C65.6897 65.2971 66.2279 65.4206 66.7662 65.1612C68.1486 64.482 69.4699 64.6672 70.7421 65.4206C70.8828 65.507 71.0143 65.6028 71.1459 65.6985C71.2774 65.7942 71.4089 65.8899 71.5496 65.9763C72.1735 66.3469 72.9564 66.0752 73.2133 65.4206C73.4091 64.9266 73.2745 64.4079 72.8219 64.0497C72.0756 63.4446 71.256 62.9753 70.3384 62.7159C70.3294 62.7132 70.3205 62.7105 70.3117 62.7079Z" fill="#298432"/>
<path d="M23.8755 134.406C21.993 134.406 20.3843 134.338 19.0495 134.201C17.726 134.053 16.6707 133.825 15.8835 133.517C15.0963 133.197 14.6057 132.781 14.4117 132.267C14.4346 131.948 14.4802 131.623 14.5487 131.292C14.6285 130.95 14.7312 130.624 14.8567 130.316C14.9936 129.985 15.1476 129.712 15.3188 129.495C15.5013 129.278 15.6895 129.141 15.8835 129.084C16.0432 129.107 16.2201 129.135 16.414 129.17C16.6194 129.193 16.8362 129.221 17.0643 129.255C17.9314 129.392 18.9183 129.506 20.025 129.598C21.143 129.677 22.5977 129.717 24.3889 129.717H26.5965V134.406H23.8755ZM12.7175 144.007C10.5384 144.007 8.67874 143.659 7.13853 142.963C5.59832 142.279 4.4232 141.269 3.61316 139.934C2.80312 138.611 2.39811 136.991 2.39811 135.074C2.39811 133.91 2.54072 132.632 2.82594 131.24C3.11117 129.849 3.52759 128.428 4.07522 126.979C4.18931 126.808 4.31481 126.683 4.45172 126.603C4.58863 126.511 4.73124 126.454 4.87956 126.432C5.10773 126.409 5.3245 126.409 5.52987 126.432C5.72382 126.443 5.93488 126.494 6.16306 126.586C6.39124 126.665 6.60801 126.774 6.81337 126.911C7.04155 127.059 7.2298 127.219 7.37812 127.39C7.52644 127.561 7.612 127.738 7.63482 127.92C7.56637 128.206 7.46369 128.542 7.32678 128.93C7.18987 129.318 7.03585 129.74 6.86472 130.197C6.54526 131.086 6.28286 131.868 6.0775 132.541C5.88354 133.203 5.77516 133.785 5.75234 134.287C5.77516 135.302 6.05468 136.186 6.5909 136.939C7.12712 137.692 7.92575 138.274 8.98678 138.685C10.0592 139.107 11.3827 139.318 12.9571 139.318C15.2047 139.318 16.9788 139.038 18.2794 138.479C19.58 137.932 20.4927 137.202 21.0175 136.289C21.5538 135.388 21.8219 134.349 21.8219 133.174H25.1248C25.1248 135.445 24.6513 137.39 23.7043 139.01C22.7688 140.63 21.3769 141.868 19.5287 142.724C17.6804 143.579 15.41 144.007 12.7175 144.007ZM34.9157 105.639C35.1211 105.639 35.2694 105.747 35.3607 105.964C35.4633 106.181 35.5204 106.46 35.5318 106.802C35.5318 106.939 35.5147 107.071 35.4805 107.196C35.4576 107.31 35.4177 107.419 35.3607 107.521C35.315 107.612 35.2637 107.692 35.2066 107.761C35.1496 107.818 35.0868 107.875 35.0184 107.932C33.1587 108.708 31.3903 109.546 29.7132 110.448C29.2455 110.699 28.8176 110.927 28.4297 111.132C28.0532 111.338 27.6881 111.537 27.3344 111.731C27.1633 111.743 27.0321 111.657 26.9408 111.474C26.8496 111.28 26.8096 111.041 26.821 110.756C26.821 110.642 26.8268 110.533 26.8382 110.43C26.861 110.328 26.8895 110.231 26.9237 110.14C26.9694 109.991 27.0321 109.854 27.112 109.729C27.1918 109.603 27.2888 109.495 27.4029 109.404C28.4868 108.742 29.7246 108.063 31.1165 107.367C32.5084 106.671 33.7748 106.095 34.9157 105.639ZM38.7833 128.4C38.7833 129.073 38.7377 129.649 38.6464 130.128C38.5666 130.596 38.4297 131.012 38.2357 131.377C38.0532 131.731 37.8193 132.039 37.5341 132.301C36.8153 132.952 35.509 133.465 33.6151 133.842C31.7326 134.218 29.3938 134.406 26.5986 134.406H24.5107C24.3282 134.406 24.1913 134.344 24.1 134.218C23.9973 134.093 23.9232 133.865 23.8775 133.534C23.8319 133.203 23.8091 132.724 23.8091 132.096C23.8091 131.423 23.8319 130.921 23.8775 130.59C23.9232 130.259 23.9973 130.031 24.1 129.906C24.1913 129.78 24.3282 129.717 24.5107 129.717H26.9408C28.926 129.717 30.6488 129.637 32.1091 129.478C33.5694 129.318 34.6476 129.056 35.3435 128.691L35.0013 129.221V128.092C35.0013 127.088 34.7275 126.169 34.1798 125.336C33.6322 124.503 32.7822 123.688 31.6299 122.889C30.489 122.079 28.9032 121.149 26.8724 120.1C26.6784 119.963 26.5244 119.809 26.4103 119.638C26.2962 119.455 26.205 119.255 26.1365 119.039C26.1023 118.89 26.0738 118.742 26.0509 118.594C26.0281 118.434 26.0224 118.274 26.0338 118.114C26.0338 117.761 26.0566 117.436 26.1023 117.139C26.1479 116.831 26.2107 116.534 26.2905 116.249C26.3818 115.964 26.4959 115.701 26.6328 115.462C26.7697 115.222 26.9408 115.011 27.1462 114.829C27.8421 114.304 28.9431 113.636 30.4491 112.826C31.9665 112.016 33.5523 111.241 35.2066 110.499C36.8609 109.746 38.327 109.147 39.6048 108.702C39.9357 108.793 40.1809 109.056 40.3407 109.489C40.5118 109.911 40.6031 110.442 40.6145 111.081C40.6145 111.309 40.5917 111.526 40.546 111.731C40.5118 111.936 40.4434 112.125 40.3407 112.296C40.2722 112.421 40.1752 112.541 40.0497 112.655C39.9357 112.769 39.7987 112.872 39.639 112.963C39.331 113.089 39.0172 113.22 38.6978 113.357C38.3783 113.482 38.0589 113.608 37.7394 113.733C36.2563 114.361 34.8358 114.983 33.4782 115.599C32.1205 116.203 30.934 116.762 29.9186 117.276C32.3145 118.497 34.1513 119.666 35.4291 120.784C36.7069 121.902 37.5854 123.055 38.0646 124.241C38.5438 125.416 38.7833 126.802 38.7833 128.4ZM48.5914 133.054C48.5914 135.405 48.2206 137.418 47.479 139.096C46.7374 140.773 45.7449 142.039 44.5013 142.895C43.2577 143.762 41.8886 144.195 40.3941 144.195C39.6753 144.195 38.9851 144.127 38.3233 143.99C37.6616 143.864 37.0969 143.671 36.6291 143.408C36.1613 143.146 35.8362 142.826 35.6536 142.45C35.6879 141.902 35.7905 141.394 35.9617 140.927C36.0644 140.619 36.1899 140.356 36.3382 140.139C36.4865 139.934 36.6519 139.803 36.8345 139.746C36.96 139.746 37.0969 139.752 37.2452 139.763C37.4049 139.774 37.5703 139.786 37.7415 139.797C38.6428 139.854 39.3958 139.883 40.0005 139.883C41.0387 139.883 41.9514 139.586 42.7386 138.993C43.5258 138.411 44.1248 137.629 44.5355 136.648C44.9576 135.667 45.1687 134.612 45.1687 133.482C45.0546 132.729 44.9006 131.857 44.7067 130.864C44.5127 129.86 44.3245 128.89 44.1419 127.955C43.6285 125.445 43.3718 124.047 43.3718 123.762C43.406 123.534 43.5258 123.323 43.7312 123.129C43.9365 122.935 44.1875 122.769 44.4842 122.632C44.7466 122.507 45.0033 122.41 45.2543 122.341C45.5167 122.262 45.7392 122.216 45.9217 122.205C46.1499 122.182 46.3495 122.187 46.5207 122.222C46.7032 122.244 46.8629 122.296 46.9999 122.376C47.1025 122.433 47.1881 122.513 47.2566 122.615C47.3364 122.707 47.3992 122.815 47.4448 122.94C47.5018 123.271 47.5532 123.619 47.5988 123.984C47.6559 124.338 47.7186 124.715 47.7871 125.114C48.0153 126.768 48.2035 128.308 48.3518 129.734C48.5115 131.161 48.5914 132.267 48.5914 133.054ZM47.4277 115.017C47.3935 115.382 47.2737 115.776 47.0683 116.198C46.8744 116.62 46.6405 116.991 46.3667 117.31C46.2412 117.436 46.1214 117.544 46.0073 117.635C45.9046 117.715 45.7962 117.772 45.6821 117.806C45.317 117.761 44.8607 117.63 44.313 117.413C43.7768 117.196 43.2862 116.939 42.8413 116.643C42.6017 116.483 42.3963 116.323 42.2252 116.163C42.0655 115.992 41.9628 115.827 41.9172 115.667C41.9514 115.336 42.0655 114.966 42.2594 114.555C42.4534 114.144 42.6816 113.785 42.944 113.477C43.2178 113.157 43.4859 112.963 43.7483 112.895C44.102 112.929 44.5526 113.066 45.1003 113.306C45.6479 113.534 46.1442 113.808 46.5891 114.127C47.0455 114.435 47.325 114.732 47.4277 115.017ZM58.7075 134.406C57.3156 134.406 56.1234 134.207 55.1308 133.807C54.1496 133.397 53.3624 132.712 52.7691 131.754C52.1759 130.784 51.8393 129.483 51.7594 127.852C51.634 125.593 51.5142 123.043 51.4001 120.202C51.286 117.361 51.189 114.851 51.1091 112.672C51.0863 112.068 51.0635 111.56 51.0407 111.149C51.0293 110.739 51.0236 110.442 51.0236 110.259C51.0578 110.065 51.1377 109.894 51.2632 109.746C51.4001 109.598 51.5769 109.461 51.7937 109.335C52.0561 109.198 52.3527 109.096 52.6836 109.027C53.0144 108.947 53.3396 108.902 53.659 108.89C53.8758 108.879 54.0755 108.89 54.258 108.925C54.4406 108.959 54.6003 109.01 54.7372 109.079C54.8513 109.158 54.9426 109.255 55.011 109.369C55.0909 109.472 55.1422 109.592 55.165 109.729V125.901C55.165 126.905 55.3019 127.687 55.5757 128.246C55.8496 128.793 56.2546 129.175 56.7908 129.392C57.327 129.609 58.023 129.717 58.8786 129.717H59.0669V134.406H58.7075ZM67.1807 127.818C67.1807 128.662 67.1123 129.386 66.9754 129.991C66.8499 130.584 66.6274 131.121 66.3079 131.6C65.9885 132.068 65.5435 132.495 64.9731 132.883C64.2315 133.397 63.2104 133.779 61.9098 134.03C60.6206 134.281 58.9777 134.406 56.9811 134.406C56.7986 134.406 56.6617 134.349 56.5704 134.235C56.4677 134.11 56.3935 133.887 56.3479 133.568C56.3023 133.237 56.2795 132.735 56.2795 132.062C56.2795 131.389 56.3023 130.887 56.3479 130.556C56.3935 130.225 56.4677 130.003 56.5704 129.888C56.6617 129.774 56.7986 129.717 56.9811 129.717C58.7837 129.717 60.2669 129.637 61.4306 129.478C62.5943 129.318 63.45 129.073 63.9976 128.742L63.8265 129.307C63.701 128.474 63.5584 127.595 63.3986 126.671C63.2389 125.747 63.0849 124.863 62.9366 124.019C62.6399 122.341 62.4916 121.417 62.4916 121.246C62.5373 120.972 62.697 120.733 62.9708 120.527C63.256 120.322 63.5755 120.157 63.9292 120.031C64.2942 119.906 64.6251 119.837 64.9217 119.826C65.1043 119.814 65.2697 119.826 65.418 119.86C65.5778 119.883 65.7147 119.923 65.8288 119.98C65.9657 120.048 66.0855 120.14 66.1881 120.254C66.2908 120.368 66.3764 120.51 66.4448 120.681C66.5703 121.412 66.7244 122.627 66.9069 124.327C67.0894 126.027 67.1807 127.19 67.1807 127.818ZM62.0467 113.836C61.8185 114.349 61.6017 114.789 61.3964 115.154C61.2024 115.507 61.0028 115.81 60.7974 116.061C60.6833 116.198 60.5635 116.312 60.438 116.403C60.3239 116.483 60.2041 116.534 60.0786 116.557C59.7021 116.511 59.2116 116.346 58.6069 116.061C58.0136 115.776 57.523 115.468 57.1351 115.137C56.8499 114.897 56.6902 114.686 56.6559 114.503C56.6788 114.287 56.7415 114.053 56.8442 113.802C56.9355 113.551 57.061 113.3 57.2207 113.049C57.4032 112.729 57.5972 112.461 57.8025 112.245C58.0193 112.028 58.2247 111.897 58.4186 111.851C58.681 111.897 59.0575 112.033 59.5481 112.262C60.0501 112.478 60.535 112.735 61.0028 113.032C61.4705 113.317 61.8185 113.585 62.0467 113.836ZM67.6599 113.887C67.6371 114.104 67.5743 114.344 67.4716 114.606C67.3804 114.869 67.2549 115.125 67.0951 115.376C66.924 115.684 66.7358 115.947 66.5304 116.163C66.3365 116.38 66.1539 116.511 65.9828 116.557C65.6747 116.511 65.2184 116.352 64.6137 116.078C64.0204 115.793 63.4728 115.485 62.9708 115.154C62.8111 115.04 62.6685 114.937 62.543 114.846C62.4289 114.743 62.3376 114.646 62.2692 114.555C62.4631 114.121 62.6457 113.745 62.8168 113.425C62.9879 113.106 63.1591 112.826 63.3302 112.587C63.4899 112.381 63.6496 112.216 63.8094 112.09C63.9691 111.965 64.1345 111.885 64.3057 111.851C64.6023 111.885 65.0016 112.016 65.5036 112.245C66.0056 112.473 66.462 112.741 66.8727 113.049C67.2948 113.345 67.5572 113.625 67.6599 113.887ZM111.269 134.406C109.638 134.406 108.354 134.178 107.419 133.722C106.494 133.254 105.89 132.627 105.605 131.839H105.964C105.485 132.672 104.829 133.311 103.996 133.756C103.174 134.19 102.21 134.406 101.104 134.406C100.282 134.406 99.5521 134.281 98.9132 134.03C98.2857 133.779 97.7723 133.442 97.3729 133.02C96.985 132.598 96.7169 132.125 96.5686 131.6L96.8938 131.651C96.6542 132.199 96.2891 132.678 95.7985 133.089C95.3193 133.499 94.7375 133.825 94.0529 134.064C93.3684 134.292 92.6211 134.406 91.8111 134.406C90.8299 134.406 89.9856 134.252 89.2783 133.944C88.5823 133.625 88.0518 133.197 87.6867 132.661L88.5766 132.045C88.5995 132.136 88.6166 132.279 88.628 132.473C88.6508 132.655 88.6622 132.809 88.6622 132.935C88.6622 135.216 88.1887 137.19 87.2418 138.856C86.2948 140.522 84.9543 141.794 83.2201 142.672C81.4974 143.562 79.4837 144.007 77.1791 144.007C75.2053 144.007 73.494 143.665 72.045 142.98C70.5961 142.296 69.478 141.286 68.6908 139.951C67.9036 138.616 67.51 136.991 67.51 135.074C67.51 133.91 67.6526 132.632 67.9378 131.24C68.223 129.849 68.6395 128.428 69.1871 126.979C69.3811 126.728 69.6035 126.563 69.8545 126.483C70.1055 126.403 70.3622 126.386 70.6246 126.432C70.8072 126.443 71.0011 126.489 71.2065 126.568C71.4233 126.637 71.6343 126.734 71.8397 126.859C72.0793 127.008 72.2789 127.173 72.4387 127.356C72.6098 127.538 72.7125 127.726 72.7467 127.92C72.6782 128.206 72.5756 128.542 72.4387 128.93C72.3017 129.318 72.1477 129.74 71.9766 130.197C71.6571 131.086 71.3947 131.868 71.1894 132.541C70.9954 133.203 70.887 133.785 70.8642 134.287C70.887 135.291 71.1551 136.169 71.6686 136.922C72.182 137.687 72.9235 138.274 73.8933 138.685C74.8745 139.107 76.0553 139.318 77.4358 139.318C79.0444 139.318 80.4306 139.044 81.5943 138.497C82.7695 137.949 83.6651 137.173 84.2812 136.169C84.8972 135.165 85.2053 133.984 85.2053 132.627C85.0798 131.931 84.9372 131.183 84.7775 130.385C84.6177 129.575 84.4523 128.788 84.2812 128.023C84.053 126.939 83.8647 126.027 83.7164 125.285C83.5681 124.532 83.4825 124.024 83.4597 123.762C83.4939 123.568 83.5852 123.391 83.7335 123.231C83.8818 123.06 84.0701 122.912 84.2983 122.786C84.5607 122.615 84.8459 122.484 85.1539 122.393C85.462 122.29 85.7244 122.233 85.9412 122.222C86.2948 122.199 86.62 122.227 86.9166 122.307C87.0535 122.364 87.1733 122.444 87.276 122.547C87.3787 122.638 87.4643 122.758 87.5327 122.906L88.1146 126.568C88.2401 127.356 88.4568 127.977 88.7649 128.434C89.0843 128.89 89.5008 129.221 90.0142 129.426C90.5276 129.62 91.1779 129.717 91.9651 129.717C92.5355 129.717 93.0547 129.66 93.5224 129.546C94.0016 129.432 94.4009 129.267 94.7204 129.05C95.0512 128.833 95.2965 128.576 95.4562 128.28L95.3878 128.793C95.2965 128.28 95.2167 127.618 95.1482 126.808C95.0912 125.998 95.0626 125.359 95.0626 124.891C95.0855 124.686 95.1539 124.509 95.268 124.361C95.3935 124.201 95.5532 124.064 95.7472 123.95C95.9297 123.847 96.1294 123.773 96.3461 123.728C96.5629 123.671 96.7911 123.636 97.0307 123.625C97.3387 123.614 97.5897 123.648 97.7837 123.728C97.989 123.808 98.1488 123.927 98.2628 124.087C98.2971 124.155 98.3256 124.224 98.3484 124.292C98.3712 124.361 98.3941 124.435 98.4169 124.515C98.5081 125.964 98.6393 127.042 98.8105 127.749C98.9816 128.445 99.2725 128.947 99.6833 129.255C100.105 129.563 100.733 129.717 101.566 129.717C102.239 129.717 102.855 129.603 103.414 129.375C103.984 129.147 104.372 128.81 104.578 128.365L104.389 128.964C104.298 128.109 104.218 127.099 104.15 125.935C104.081 124.76 104.047 123.653 104.047 122.615C104.081 122.41 104.161 122.227 104.287 122.068C104.412 121.908 104.572 121.771 104.766 121.657C104.96 121.543 105.171 121.457 105.399 121.4C105.639 121.343 105.884 121.315 106.135 121.315C106.409 121.303 106.648 121.332 106.854 121.4C107.071 121.457 107.242 121.554 107.367 121.691C107.424 121.76 107.47 121.828 107.504 121.897C107.538 121.965 107.567 122.045 107.59 122.136L107.709 125.798C107.744 126.757 107.881 127.521 108.12 128.092C108.371 128.651 108.765 129.061 109.301 129.324C109.837 129.586 110.562 129.717 111.474 129.717H111.919V134.406H111.269ZM117.141 118.354C118.373 118.354 119.868 118.576 121.625 119.021C123.393 119.466 125.122 120.008 126.81 120.647C128.499 121.275 129.822 121.857 130.78 122.393C131.157 122.689 131.414 123.003 131.551 123.334C131.687 123.653 131.745 123.996 131.722 124.361C131.71 124.509 131.676 124.697 131.619 124.926C131.562 125.142 131.488 125.371 131.397 125.61C131.305 125.85 131.203 126.072 131.088 126.278C130.986 126.483 130.883 126.66 130.78 126.808C129.16 128.691 127.46 130.185 125.681 131.292C123.901 132.387 121.887 133.18 119.64 133.671C117.392 134.161 114.728 134.406 111.648 134.406H109.816C109.623 134.406 109.48 134.349 109.389 134.235C109.286 134.121 109.218 133.904 109.183 133.585C109.138 133.254 109.115 132.746 109.115 132.062C109.115 131.389 109.138 130.887 109.183 130.556C109.218 130.225 109.286 130.003 109.389 129.888C109.48 129.774 109.623 129.717 109.816 129.717H111.819C114.523 129.717 116.787 129.58 118.613 129.307C120.438 129.021 122.075 128.525 123.524 127.818C124.985 127.099 126.422 126.078 127.837 124.754L127.94 125.285C126.844 124.794 125.544 124.321 124.038 123.865C122.532 123.408 121.009 123.032 119.468 122.735C117.928 122.438 116.576 122.273 115.413 122.239L116.183 121.965L115.276 125.85C115.253 125.918 115.213 125.987 115.156 126.055C115.11 126.112 115.059 126.163 115.002 126.209C114.751 126.357 114.5 126.437 114.249 126.449C114.032 126.437 113.815 126.403 113.599 126.346C113.393 126.278 113.199 126.186 113.017 126.072C112.846 125.97 112.709 125.85 112.606 125.713C112.503 125.576 112.441 125.422 112.418 125.251C112.555 123.768 112.8 122.513 113.154 121.486C113.507 120.459 114.004 119.683 114.642 119.158C115.293 118.622 116.126 118.354 117.141 118.354Z" fill="#212121"/>
<path d="M31.1877 172.594C30.7454 172.594 30.3598 172.537 30.0311 172.423C29.7083 172.31 29.4543 172.139 29.269 171.912L29.4752 171.733C29.4872 171.793 29.4962 171.867 29.5021 171.957C29.5081 172.041 29.5111 172.112 29.5111 172.172C29.5111 173.266 29.3348 174.228 28.9821 175.059C28.6295 175.89 28.1483 176.532 27.5387 176.987C26.929 177.441 26.2506 177.668 25.5035 177.668C25.3123 177.668 25.121 177.65 24.9297 177.614C24.7444 177.578 24.5621 177.531 24.3828 177.471C24.2095 177.417 24.0332 177.351 23.8539 177.274C23.8718 177.184 23.8927 177.07 23.9166 176.933C23.9465 176.795 23.9764 176.655 24.0063 176.511C24.0302 176.41 24.0511 176.317 24.069 176.234C24.087 176.15 24.0989 176.081 24.1049 176.027C24.1706 176.039 24.2424 176.051 24.3201 176.063C24.3978 176.075 24.4815 176.084 24.5711 176.09C24.6906 176.102 24.8162 176.108 24.9477 176.108C25.0851 176.114 25.2286 176.117 25.378 176.117C25.9637 176.117 26.4778 175.935 26.9201 175.57C27.3683 175.211 27.709 174.742 27.9421 174.163C28.1812 173.589 28.3008 172.991 28.3008 172.369C28.2529 172.094 28.1902 171.76 28.1125 171.365C28.0408 170.965 27.9631 170.531 27.8794 170.065C27.5327 168.165 27.3564 167.187 27.3504 167.134C27.4102 167.11 27.4909 167.077 27.5925 167.035C27.6941 166.993 27.7987 166.951 27.9063 166.909C27.9601 166.886 28.0079 166.868 28.0497 166.856C28.0975 166.838 28.1334 166.823 28.1573 166.811C28.2589 166.769 28.3665 166.727 28.4801 166.685C28.5996 166.637 28.7042 166.596 28.7939 166.56L29.2332 169.554C29.3049 170.044 29.4992 170.406 29.8159 170.639C30.1387 170.866 30.5959 170.98 31.1877 170.98V172.594ZM36.6129 172.594C35.9016 172.594 35.3338 172.471 34.9094 172.226C34.4851 171.981 34.1922 171.676 34.0308 171.311L34.2908 171.231C34.1055 171.482 33.8545 171.709 33.5377 171.912C33.2209 172.115 32.7936 172.28 32.2556 172.405C31.7177 172.531 31.0572 172.594 30.2743 172.594H30.0949C29.9993 172.594 29.9276 172.57 29.8798 172.522C29.826 172.474 29.7871 172.393 29.7632 172.28C29.7393 172.166 29.7274 171.999 29.7274 171.778C29.7274 171.557 29.7393 171.389 29.7632 171.276C29.7871 171.162 29.826 171.084 29.8798 171.043C29.9276 171.001 29.9993 170.98 30.0949 170.98H30.3549C31.0244 170.98 31.5982 170.935 32.0763 170.845C32.5545 170.756 32.931 170.633 33.206 170.478C33.4809 170.322 33.6572 170.149 33.7349 169.958L33.6363 170.478C33.5825 170.011 33.5377 169.444 33.5018 168.774C33.472 168.099 33.457 167.352 33.457 166.533C33.4929 166.527 33.5377 166.518 33.5915 166.506C33.6453 166.494 33.7021 166.479 33.7618 166.461C33.8276 166.455 33.8874 166.446 33.9411 166.434C34.0009 166.422 34.0517 166.413 34.0936 166.407C34.1294 166.395 34.1743 166.383 34.228 166.371C34.2818 166.36 34.3356 166.351 34.3894 166.345C34.4492 166.333 34.503 166.321 34.5508 166.309C34.6046 166.297 34.6494 166.288 34.6853 166.282L34.7839 168.98C34.8018 169.459 34.8736 169.844 34.9991 170.137C35.1246 170.424 35.3248 170.636 35.5998 170.774C35.8807 170.911 36.2543 170.98 36.7205 170.98H36.8998V172.594H36.6129ZM32.8653 163.44C32.7995 163.565 32.7278 163.694 32.6501 163.825C32.5784 163.957 32.5067 164.088 32.4349 164.22C32.3871 164.309 32.3423 164.39 32.3005 164.462C32.2646 164.534 32.2347 164.587 32.2108 164.623C32.0434 164.534 31.8223 164.423 31.5474 164.291C31.2724 164.16 31.0154 164.034 30.7763 163.915C30.5791 163.819 30.4566 163.76 30.4087 163.736C30.4446 163.676 30.4864 163.598 30.5343 163.503C30.5821 163.401 30.6388 163.293 30.7046 163.18C30.7763 163.042 30.8421 162.917 30.9018 162.803C30.9676 162.684 31.0184 162.591 31.0543 162.525C31.2216 162.597 31.4159 162.681 31.637 162.776C31.8582 162.872 32.0763 162.98 32.2915 163.099C32.5126 163.213 32.7039 163.326 32.8653 163.44ZM35.6984 163.413C35.6625 163.473 35.6207 163.553 35.5729 163.655C35.5251 163.751 35.4683 163.855 35.4025 163.969C35.3308 164.106 35.2651 164.235 35.2053 164.354C35.1455 164.468 35.0977 164.557 35.0618 164.623C34.9005 164.54 34.6793 164.429 34.3984 164.291C34.1175 164.148 33.8545 164.017 33.6094 163.897C33.5377 163.861 33.469 163.828 33.4032 163.798C33.3434 163.763 33.2897 163.733 33.2418 163.709C33.3016 163.595 33.3644 163.479 33.4301 163.359C33.5018 163.234 33.5706 163.108 33.6363 162.983C33.6961 162.875 33.7469 162.782 33.7887 162.705C33.8366 162.627 33.8694 162.567 33.8874 162.525C34.0607 162.591 34.2549 162.672 34.4701 162.767C34.6853 162.857 34.9005 162.959 35.1156 163.072C35.3368 163.186 35.531 163.299 35.6984 163.413ZM52.196 172.594C51.3951 172.594 50.7645 172.483 50.3043 172.262C49.8441 172.041 49.5392 171.751 49.3898 171.392H49.5781C49.339 171.769 49.0013 172.065 48.565 172.28C48.1287 172.489 47.6326 172.594 47.0767 172.594C46.6404 172.594 46.2638 172.534 45.9471 172.414C45.6303 172.289 45.3733 172.124 45.176 171.921C44.9848 171.718 44.8473 171.491 44.7636 171.24L44.8802 171.285C44.7546 171.536 44.5544 171.763 44.2795 171.966C44.0105 172.163 43.6907 172.319 43.3202 172.432C42.9556 172.54 42.57 172.594 42.1636 172.594C41.7392 172.594 41.3597 172.537 41.025 172.423C40.6963 172.304 40.4183 172.127 40.1912 171.894C39.9641 171.661 39.7937 171.374 39.6802 171.034H39.8774C39.7041 171.344 39.4351 171.616 39.0705 171.849C38.7059 172.083 38.2606 172.265 37.7346 172.396C37.2146 172.528 36.6319 172.594 35.9864 172.594H35.8071C35.7114 172.594 35.6397 172.57 35.5919 172.522C35.5381 172.474 35.4992 172.393 35.4753 172.28C35.4514 172.166 35.4395 171.999 35.4395 171.778C35.4395 171.557 35.4514 171.389 35.4753 171.276C35.4992 171.162 35.5381 171.084 35.5919 171.043C35.6397 171.001 35.7114 170.98 35.8071 170.98H36.085C36.6946 170.98 37.2326 170.923 37.6988 170.809C38.171 170.696 38.5445 170.54 38.8195 170.343C39.0944 170.146 39.2677 169.925 39.3395 169.68L39.3126 170.173C39.2648 169.82 39.2229 169.369 39.1871 168.819C39.1572 168.269 39.1422 167.779 39.1422 167.349C39.1721 167.343 39.202 167.337 39.2319 167.331C39.2677 167.319 39.3066 167.31 39.3484 167.304C39.4202 167.286 39.4889 167.271 39.5546 167.259C39.6264 167.247 39.7011 167.232 39.7788 167.214C39.8445 167.202 39.9073 167.19 39.9671 167.178C40.0328 167.166 40.0926 167.154 40.1464 167.143C40.2121 167.131 40.2808 167.116 40.3526 167.098C40.4004 168.233 40.4691 169.055 40.5588 169.563C40.6484 170.071 40.8248 170.436 41.0877 170.657C41.3567 170.872 41.7781 170.98 42.3519 170.98C42.6746 170.98 42.9705 170.944 43.2395 170.872C43.5144 170.8 43.7505 170.702 43.9477 170.576C44.145 170.445 44.2914 170.292 44.3871 170.119L44.3781 170.388C44.3183 170.059 44.2675 169.611 44.2257 169.043C44.1838 168.475 44.1629 168.036 44.1629 167.725C44.2048 167.719 44.2526 167.71 44.3064 167.698C44.3602 167.686 44.4199 167.674 44.4857 167.663C44.5514 167.651 44.6142 167.639 44.674 167.627C44.7397 167.615 44.8025 167.6 44.8622 167.582C44.9399 167.57 45.0117 167.558 45.0774 167.546C45.1491 167.534 45.2119 167.519 45.2657 167.501C45.2836 167.495 45.2986 167.492 45.3105 167.492C45.3284 167.492 45.3464 167.489 45.3643 167.483C45.4181 168.481 45.4838 169.208 45.5615 169.662C45.6452 170.11 45.8096 170.442 46.0546 170.657C46.2997 170.872 46.6852 170.98 47.2112 170.98C47.6356 170.98 48.0241 170.908 48.3767 170.765C48.7294 170.621 48.9684 170.409 49.094 170.128L48.9953 170.478C48.9475 170.011 48.9057 169.435 48.8698 168.747C48.834 168.054 48.816 167.307 48.816 166.506C48.8519 166.5 48.8967 166.491 48.9505 166.479C49.0043 166.467 49.0611 166.458 49.1209 166.452C49.1806 166.44 49.2344 166.428 49.2822 166.416C49.336 166.404 49.3838 166.395 49.4257 166.389C49.4854 166.377 49.5512 166.366 49.6229 166.354C49.6946 166.342 49.7664 166.327 49.8381 166.309C49.8799 166.303 49.9158 166.297 49.9457 166.291C49.9756 166.285 50.0054 166.279 50.0353 166.273L50.125 168.963C50.1429 169.453 50.2176 169.841 50.3491 170.128C50.4866 170.415 50.7107 170.63 51.0215 170.774C51.3323 170.911 51.7597 170.98 52.3036 170.98H52.5636V172.594H52.196ZM45.1133 160.634C45.0654 160.723 44.9997 160.843 44.916 160.992C44.8323 161.136 44.7427 161.285 44.6471 161.44C44.5992 161.518 44.5574 161.59 44.5215 161.656C44.4917 161.715 44.4648 161.766 44.4409 161.808C44.2735 161.712 44.0912 161.617 43.894 161.521C43.7027 161.426 43.5204 161.336 43.3471 161.252C43.1737 161.163 43.0213 161.082 42.8898 161.01C42.9197 160.968 42.9556 160.911 42.9974 160.84C43.0392 160.762 43.0841 160.675 43.1319 160.58C43.2215 160.436 43.3022 160.299 43.374 160.167C43.4517 160.03 43.5174 159.919 43.5712 159.836C43.7326 159.895 43.8969 159.964 44.0643 160.042C44.2376 160.12 44.411 160.206 44.5843 160.302C44.7576 160.397 44.934 160.508 45.1133 160.634ZM44.2346 163.198C44.1689 163.323 44.0972 163.452 44.0195 163.583C43.9477 163.715 43.876 163.846 43.8043 163.978C43.7565 164.067 43.7117 164.148 43.6698 164.22C43.634 164.291 43.6041 164.345 43.5802 164.381C43.4128 164.291 43.1917 164.181 42.9167 164.049C42.6418 163.918 42.3848 163.792 42.1457 163.673C41.9484 163.577 41.8259 163.517 41.7781 163.494C41.814 163.434 41.8558 163.356 41.9036 163.26C41.9514 163.159 42.0082 163.051 42.074 162.938C42.1457 162.8 42.2114 162.675 42.2712 162.561C42.3369 162.442 42.3877 162.349 42.4236 162.283C42.591 162.355 42.7852 162.439 43.0064 162.534C43.2275 162.63 43.4457 162.737 43.6609 162.857C43.882 162.971 44.0733 163.084 44.2346 163.198ZM47.0677 163.171C47.0319 163.231 46.99 163.311 46.9422 163.413C46.8944 163.509 46.8376 163.613 46.7719 163.727C46.7002 163.864 46.6344 163.993 46.5746 164.112C46.5149 164.226 46.4671 164.315 46.4312 164.381C46.2698 164.297 46.0487 164.187 45.7677 164.049C45.4868 163.906 45.2238 163.774 44.9788 163.655C44.9071 163.619 44.8383 163.586 44.7726 163.556C44.7128 163.52 44.659 163.491 44.6112 163.467C44.671 163.353 44.7337 163.237 44.7995 163.117C44.8712 162.991 44.9399 162.866 45.0057 162.74C45.0654 162.633 45.1163 162.54 45.1581 162.463C45.2059 162.385 45.2388 162.325 45.2567 162.283C45.43 162.349 45.6243 162.43 45.8395 162.525C46.0546 162.615 46.2698 162.717 46.485 162.83C46.7061 162.944 46.9004 163.057 47.0677 163.171ZM57.9888 172.594C57.2776 172.594 56.7097 172.471 56.2854 172.226C55.861 171.981 55.5681 171.676 55.4068 171.311L55.6668 171.231C55.4815 171.482 55.2304 171.709 54.9137 171.912C54.5969 172.115 54.1695 172.28 53.6316 172.405C53.0937 172.531 52.4332 172.594 51.6502 172.594H51.4709C51.3753 172.594 51.3035 172.57 51.2557 172.522C51.2019 172.474 51.1631 172.393 51.1392 172.28C51.1153 172.166 51.1033 171.999 51.1033 171.778C51.1033 171.557 51.1153 171.389 51.1392 171.276C51.1631 171.162 51.2019 171.084 51.2557 171.043C51.3035 171.001 51.3753 170.98 51.4709 170.98H51.7309C52.4003 170.98 52.9741 170.935 53.4523 170.845C53.9304 170.756 54.307 170.633 54.5819 170.478C54.8569 170.322 55.0332 170.149 55.1109 169.958L55.0123 170.478C54.9585 170.011 54.9137 169.444 54.8778 168.774C54.8479 168.099 54.833 167.352 54.833 166.533C54.8688 166.527 54.9137 166.518 54.9674 166.506C55.0212 166.494 55.078 166.479 55.1378 166.461C55.2035 166.455 55.2633 166.446 55.3171 166.434C55.3769 166.422 55.4277 166.413 55.4695 166.407C55.5054 166.395 55.5502 166.383 55.604 166.371C55.6578 166.36 55.7116 166.351 55.7654 166.345C55.8251 166.333 55.8789 166.321 55.9268 166.309C55.9806 166.297 56.0254 166.288 56.0612 166.282L56.1599 168.98C56.1778 169.459 56.2495 169.844 56.375 170.137C56.5006 170.424 56.7008 170.636 56.9757 170.774C57.2566 170.911 57.6302 170.98 58.0964 170.98H58.2757V172.594H57.9888ZM53.4343 176.081C53.3686 176.207 53.2969 176.335 53.2192 176.467C53.1474 176.604 53.0757 176.739 53.004 176.87C52.9562 176.96 52.9114 177.037 52.8695 177.103C52.8337 177.175 52.8038 177.229 52.7799 177.265C52.6125 177.175 52.3914 177.064 52.1164 176.933C51.8415 176.801 51.5845 176.676 51.3454 176.556C51.1481 176.467 51.0256 176.407 50.9778 176.377C51.0137 176.317 51.0555 176.237 51.1033 176.135C51.1511 176.039 51.2079 175.935 51.2737 175.821C51.3454 175.684 51.4111 175.555 51.4709 175.436C51.5366 175.322 51.5874 175.232 51.6233 175.167C51.7907 175.238 51.9849 175.322 52.2061 175.418C52.4272 175.519 52.6454 175.627 52.8605 175.74C53.0817 175.854 53.273 175.968 53.4343 176.081ZM56.2674 176.054C56.2316 176.114 56.1897 176.192 56.1419 176.287C56.0941 176.389 56.0373 176.497 55.9716 176.61C55.8999 176.748 55.8341 176.876 55.7743 176.996C55.7146 177.115 55.6668 177.205 55.6309 177.265C55.4695 177.181 55.2484 177.07 54.9674 176.933C54.6865 176.795 54.4235 176.667 54.1785 176.547C54.1068 176.506 54.038 176.467 53.9723 176.431C53.9125 176.401 53.8587 176.374 53.8109 176.35C53.8707 176.237 53.9334 176.117 53.9992 175.991C54.0709 175.872 54.1396 175.749 54.2054 175.624C54.2651 175.522 54.316 175.43 54.3578 175.346C54.4056 175.268 54.4385 175.209 54.4564 175.167C54.6297 175.232 54.824 175.31 55.0392 175.4C55.2543 175.495 55.4695 175.6 55.6847 175.714C55.9058 175.827 56.1001 175.941 56.2674 176.054ZM62.0244 170.02C62.0244 170.301 62.0005 170.552 61.9527 170.774C61.9108 170.989 61.8242 171.195 61.6927 171.392C61.5671 171.589 61.3878 171.766 61.1547 171.921C60.8021 172.16 60.3 172.334 59.6485 172.441C59.003 172.543 58.1812 172.594 57.183 172.594C57.0874 172.594 57.0156 172.57 56.9678 172.522C56.914 172.474 56.8752 172.393 56.8513 172.28C56.8274 172.166 56.8154 171.999 56.8154 171.778C56.8154 171.557 56.8274 171.389 56.8513 171.276C56.8752 171.162 56.914 171.084 56.9678 171.043C57.0156 171.001 57.0874 170.98 57.183 170.98C58.1154 170.98 58.8894 170.956 59.5051 170.908C60.1207 170.854 60.6347 170.735 61.0471 170.549L60.9575 170.818C60.8798 170.352 60.7901 169.811 60.6885 169.196C60.5869 168.58 60.4853 167.967 60.3837 167.358C60.2402 166.503 60.1625 166.04 60.1506 165.968C60.2104 165.944 60.2881 165.917 60.3837 165.887C60.4853 165.857 60.5839 165.828 60.6796 165.798C60.7812 165.762 60.8619 165.735 60.9216 165.717C60.9575 165.705 60.9993 165.693 61.0471 165.681C61.1009 165.663 61.1547 165.642 61.2085 165.618C61.2743 165.6 61.334 165.583 61.3878 165.565C61.4416 165.541 61.4894 165.523 61.5313 165.511C61.5851 165.846 61.6807 166.587 61.8182 167.734C61.9557 168.876 62.0244 169.638 62.0244 170.02ZM60.2671 176.045C60.2134 176.159 60.1416 176.302 60.052 176.476C59.9683 176.655 59.8786 176.837 59.783 177.023C59.7471 177.1 59.7143 177.166 59.6844 177.22C59.6545 177.274 59.6336 177.318 59.6216 177.354C59.4363 177.271 59.2242 177.175 58.9851 177.067C58.752 176.966 58.5189 176.861 58.2858 176.754C58.1662 176.694 58.0527 176.637 57.9451 176.583C57.8435 176.535 57.7538 176.491 57.6761 176.449C57.7299 176.347 57.7986 176.21 57.8823 176.036C57.966 175.863 58.0467 175.693 58.1244 175.525C58.2081 175.364 58.2738 175.235 58.3216 175.14C58.495 175.206 58.6952 175.286 58.9223 175.382C59.1494 175.483 59.3796 175.591 59.6127 175.705C59.8517 175.818 60.0699 175.932 60.2671 176.045ZM75.9052 164.695C76.198 164.695 76.5059 164.728 76.8286 164.794C77.1573 164.859 77.4801 164.952 77.7969 165.071C78.1137 165.191 78.4125 165.329 78.6934 165.484C78.6636 165.562 78.6277 165.66 78.5859 165.78C78.55 165.899 78.5141 166.025 78.4783 166.156C78.4424 166.276 78.4095 166.38 78.3796 166.47C78.3498 166.56 78.3259 166.634 78.3079 166.694C78.1764 166.646 78.0419 166.602 77.9045 166.56C77.767 166.518 77.6236 166.479 77.4741 166.443C77.1932 166.377 76.9123 166.327 76.6314 166.291C76.3564 166.249 76.0875 166.228 75.8245 166.228C75.3344 166.228 74.904 166.369 74.5334 166.649C74.1629 166.93 73.861 167.328 73.6279 167.842C73.4008 168.35 73.2603 168.951 73.2065 169.644C73.2544 169.656 73.3141 169.674 73.3859 169.698C73.4636 169.716 73.5442 169.737 73.6279 169.76C73.7475 169.79 73.8401 169.817 73.9059 169.841L76.5596 170.612C76.8824 170.702 77.1424 170.809 77.3396 170.935C77.5429 171.054 77.6923 171.207 77.7879 171.392C77.8895 171.571 77.9403 171.796 77.9403 172.065C77.9403 173.057 77.7192 173.962 77.2769 174.781C76.8346 175.606 76.1502 176.266 75.2238 176.763C74.2973 177.265 73.1408 177.516 71.7541 177.516C70.6603 177.516 69.7309 177.348 68.9659 177.014C68.2068 176.685 67.63 176.201 67.2355 175.561C66.847 174.928 66.6527 174.16 66.6527 173.257C66.6527 172.635 66.7304 171.969 66.8859 171.258C67.0472 170.546 67.3162 169.665 67.6927 168.613C67.7465 168.643 67.8063 168.679 67.8721 168.72C67.9438 168.762 68.0185 168.807 68.0962 168.855C68.2337 168.933 68.3084 168.977 68.3203 168.989C68.3502 169.007 68.3891 169.031 68.4369 169.061C68.4907 169.091 68.5475 169.121 68.6072 169.151C68.667 169.193 68.7208 169.229 68.7686 169.258C68.8224 169.288 68.8642 169.312 68.8941 169.33C68.7806 169.629 68.673 169.922 68.5714 170.209C68.4698 170.49 68.3771 170.756 68.2934 171.007C68.156 171.437 68.0424 171.82 67.9527 172.154C67.8631 172.489 67.8033 172.773 67.7734 173.006C67.8093 173.61 67.9767 174.127 68.2755 174.557C68.5803 174.987 69.0286 175.319 69.6203 175.552C70.218 175.785 70.9622 175.902 71.8527 175.902C73.0541 175.902 74.0134 175.702 74.7307 175.301C75.4539 174.901 75.9679 174.426 76.2727 173.876C76.5776 173.326 76.736 172.797 76.7479 172.289L73.4307 171.338C73.09 171.237 72.818 171.111 72.6148 170.962C72.4116 170.806 72.2682 170.633 72.1845 170.442C72.1008 170.245 72.059 170.026 72.059 169.787C72.059 168.807 72.2233 167.931 72.5521 167.16C72.8808 166.383 73.335 165.78 73.9148 165.349C74.5006 164.913 75.164 164.695 75.9052 164.695ZM84.0021 172.594C83.3446 172.594 82.7738 172.51 82.2897 172.343C81.8115 172.175 81.426 171.885 81.1331 171.473C80.8403 171.054 80.6819 170.484 80.658 169.76C80.6221 168.661 80.5773 167.304 80.5235 165.69C80.4757 164.076 80.4308 162.543 80.389 161.091C80.377 160.69 80.3651 160.359 80.3531 160.096C80.3472 159.833 80.3442 159.65 80.3442 159.549C80.38 159.537 80.4249 159.525 80.4787 159.513C80.5384 159.501 80.6012 159.486 80.6669 159.468C80.7805 159.444 80.8881 159.42 80.9897 159.396C81.0913 159.372 81.175 159.354 81.2407 159.343C81.2826 159.331 81.3304 159.319 81.3842 159.307C81.438 159.295 81.4918 159.283 81.5456 159.271C81.6113 159.259 81.6711 159.247 81.7249 159.235C81.7787 159.223 81.8235 159.211 81.8593 159.199V169.231C81.8593 169.692 81.946 170.05 82.1193 170.307C82.2927 170.558 82.5377 170.735 82.8545 170.836C83.1773 170.932 83.5897 170.98 84.0918 170.98H84.1993V172.594H84.0021ZM94.4839 169.707C94.4839 170.245 94.4122 170.75 94.2687 171.222C94.1312 171.694 93.931 172.071 93.668 172.351C93.411 172.632 93.1121 172.773 92.7715 172.773C92.1259 172.773 91.4505 172.725 90.7453 172.629C90.0459 172.54 89.3795 172.42 88.7459 172.271C88.1124 172.115 87.5715 171.945 87.1232 171.76L86.917 171.849C86.3193 171.64 85.8411 171.41 85.4825 171.159C85.1239 170.902 84.8669 170.627 84.7115 170.334C84.5561 170.041 84.4784 169.719 84.4784 169.366C84.4784 168.571 84.6308 167.836 84.9356 167.16C85.2464 166.479 85.6558 165.938 86.1639 165.538C86.6779 165.137 87.2338 164.937 87.8315 164.937C88.2678 164.937 88.6862 165.08 89.0866 165.367C89.4931 165.654 89.8218 166.091 90.0728 166.676C90.3299 167.262 90.4584 167.973 90.4584 168.81C90.4584 169.097 90.3687 169.414 90.1894 169.76C90.0101 170.107 89.7501 170.448 89.4094 170.783C89.0747 171.111 88.6832 171.404 88.2349 171.661C87.8404 171.96 87.2397 172.19 86.4328 172.351C85.6259 172.513 84.7682 172.594 83.8597 172.594H83.0977C83.002 172.594 82.9303 172.573 82.8825 172.531C82.8287 172.489 82.7898 172.411 82.7659 172.298C82.742 172.184 82.7301 172.011 82.7301 171.778C82.7301 171.545 82.742 171.371 82.7659 171.258C82.7839 171.144 82.8197 171.069 82.8735 171.034C82.9213 170.998 82.9961 170.98 83.0977 170.98H83.9584C84.7055 170.98 85.3002 170.971 85.7425 170.953C86.1908 170.929 86.6301 170.878 87.0604 170.8C87.3951 170.669 87.7239 170.499 88.0466 170.289C88.3694 170.074 88.6443 169.859 88.8715 169.644C89.1046 169.423 89.2659 169.234 89.3556 169.079C89.3735 168.547 89.3138 168.06 89.1763 167.618C89.0388 167.175 88.8386 166.826 88.5756 166.569C88.3186 166.306 88.0227 166.174 87.688 166.174C87.3413 166.174 87.0126 166.297 86.7018 166.542C86.397 166.787 86.14 167.146 85.9308 167.618C85.7275 168.084 85.602 168.631 85.5542 169.258C85.6498 169.438 85.8172 169.62 86.0563 169.805C86.3013 169.991 86.6062 170.17 86.9708 170.343C87.3354 170.517 87.7418 170.672 88.1901 170.809L88.5039 170.639C89.1255 170.818 89.7919 170.971 90.5032 171.096C91.2204 171.216 91.8211 171.276 92.3053 171.276C92.6459 171.276 92.885 171.264 93.0225 171.24C93.1062 171.001 93.1689 170.765 93.2108 170.531C93.2526 170.298 93.2735 170.095 93.2735 169.922C93.2735 169.223 92.9747 168.598 92.377 168.048C91.7853 167.492 90.8558 167.014 89.5887 166.614C88.3276 166.213 86.7108 165.902 84.7384 165.681C84.7503 165.633 84.7593 165.58 84.7653 165.52C84.7772 165.46 84.7892 165.394 84.8011 165.323C84.8131 165.263 84.822 165.212 84.828 165.17C84.834 165.122 84.843 165.083 84.8549 165.054C84.8609 165.012 84.8698 164.961 84.8818 164.901C84.8938 164.841 84.9057 164.779 84.9177 164.713C84.9296 164.641 84.9416 164.575 84.9535 164.516C84.9655 164.45 84.9774 164.393 84.9894 164.345C87.2487 164.638 89.0657 165.012 90.4404 165.466C91.8211 165.914 92.8402 166.482 93.4977 167.169C94.1551 167.857 94.4839 168.703 94.4839 169.707ZM97.8302 172.172C97.8302 173.266 97.6538 174.228 97.3012 175.059C96.9486 175.89 96.4674 176.532 95.8578 176.987C95.2481 177.441 94.5697 177.668 93.8226 177.668C93.6074 177.668 93.3713 177.647 93.1143 177.605C92.8633 177.569 92.6092 177.522 92.3522 177.462C92.1012 177.408 91.8412 177.345 91.5722 177.274C91.6081 177.118 91.6469 176.927 91.6888 176.7C91.7187 176.568 91.7456 176.443 91.7695 176.323C91.7874 176.204 91.8023 176.105 91.8143 176.027C91.898 176.033 91.9817 176.039 92.0653 176.045C92.149 176.057 92.2327 176.066 92.3164 176.072C92.8483 176.102 93.3086 176.117 93.6971 176.117C94.2828 176.117 94.7968 175.935 95.2391 175.57C95.6874 175.211 96.0281 174.742 96.2612 174.163C96.5003 173.589 96.6198 172.991 96.6198 172.369C96.572 172.094 96.5092 171.76 96.4315 171.365C96.3598 170.965 96.2821 170.531 96.1984 170.065C95.8518 168.165 95.6755 167.187 95.6695 167.134C95.7233 167.116 95.792 167.089 95.8757 167.053C95.9653 167.011 96.058 166.972 96.1536 166.936C96.2253 166.906 96.2881 166.883 96.3419 166.865C96.4017 166.841 96.4465 166.823 96.4764 166.811C96.5302 166.793 96.5899 166.772 96.6557 166.748C96.7274 166.718 96.7961 166.688 96.8619 166.658C96.9097 166.64 96.9545 166.623 96.9964 166.605C97.0442 166.587 97.083 166.572 97.1129 166.56C97.1428 166.763 97.1727 166.975 97.2026 167.196C97.2384 167.417 97.2773 167.642 97.3191 167.869C97.4865 168.98 97.612 169.868 97.6957 170.531C97.7853 171.195 97.8302 171.742 97.8302 172.172ZM97.4357 163.054C97.3819 163.168 97.3102 163.314 97.2205 163.494C97.1368 163.667 97.0472 163.846 96.9515 164.031C96.9157 164.109 96.8828 164.175 96.8529 164.229C96.823 164.283 96.8021 164.327 96.7902 164.363C96.6049 164.28 96.3927 164.187 96.1536 164.085C95.9205 163.978 95.6874 163.867 95.4543 163.754C95.3348 163.7 95.2212 163.649 95.1136 163.601C95.012 163.547 94.9224 163.5 94.8446 163.458C94.8984 163.35 94.9672 163.213 95.0509 163.045C95.1345 162.872 95.2152 162.702 95.2929 162.534C95.3766 162.367 95.4424 162.238 95.4902 162.149C95.6635 162.214 95.8637 162.295 96.0909 162.391C96.318 162.486 96.5481 162.594 96.7812 162.714C97.0203 162.827 97.2384 162.941 97.4357 163.054ZM103.031 165.672C103.743 165.672 104.355 165.896 104.869 166.345C105.389 166.793 105.79 167.456 106.071 168.335C106.357 169.208 106.501 170.269 106.501 171.518C106.501 172.815 106.307 173.923 105.918 174.844C105.536 175.77 104.998 176.473 104.304 176.951C103.617 177.429 102.825 177.668 101.928 177.668C101.683 177.668 101.408 177.647 101.104 177.605C100.805 177.563 100.506 177.51 100.207 177.444C99.9083 177.384 99.6363 177.315 99.3912 177.238C99.4032 177.166 99.4211 177.07 99.445 176.951C99.4689 176.837 99.4958 176.715 99.5257 176.583C99.5556 176.464 99.5795 176.353 99.5974 176.251C99.6154 176.156 99.6303 176.078 99.6423 176.018C99.726 176.03 99.8156 176.039 99.9112 176.045C100.013 176.051 100.117 176.06 100.225 176.072C100.452 176.084 100.7 176.093 100.969 176.099C101.238 176.111 101.519 176.117 101.812 176.117C102.535 176.117 103.154 175.941 103.668 175.588C104.188 175.241 104.585 174.751 104.86 174.118C105.135 173.484 105.273 172.749 105.273 171.912V171.67C105.273 170.654 105.174 169.814 104.977 169.151C104.785 168.481 104.517 167.985 104.17 167.663C103.823 167.34 103.411 167.178 102.933 167.178C102.425 167.178 102.015 167.325 101.704 167.618C101.394 167.911 101.169 168.317 101.032 168.837C100.9 169.351 100.847 169.958 100.871 170.657C101.002 170.723 101.169 170.783 101.373 170.836C101.576 170.884 101.815 170.923 102.09 170.953C102.371 170.983 102.676 170.998 103.004 170.998C103.5 170.998 103.988 170.974 104.466 170.926C104.95 170.878 105.341 170.812 105.64 170.729V172.145C105.371 172.283 104.98 172.393 104.466 172.477C103.952 172.555 103.414 172.594 102.852 172.594C102.129 172.594 101.534 172.522 101.068 172.378C100.602 172.229 100.252 171.993 100.019 171.67C99.7857 171.341 99.6692 170.908 99.6692 170.37C99.6692 169.414 99.8096 168.583 100.091 167.878C100.371 167.166 100.766 166.623 101.274 166.246C101.782 165.863 102.368 165.672 103.031 165.672ZM110.519 166.56C110.548 166.763 110.578 166.975 110.608 167.196C110.644 167.417 110.683 167.642 110.725 167.869C110.892 168.98 111.018 169.868 111.101 170.531C111.191 171.195 111.236 171.742 111.236 172.172C111.236 173.266 111.059 174.228 110.707 175.059C110.354 175.89 109.873 176.532 109.263 176.987C108.654 177.441 107.975 177.668 107.228 177.668C107.037 177.668 106.846 177.65 106.654 177.614C106.469 177.578 106.287 177.531 106.107 177.471C105.934 177.417 105.758 177.351 105.579 177.274C105.596 177.184 105.617 177.07 105.641 176.933C105.671 176.795 105.701 176.655 105.731 176.511C105.755 176.41 105.776 176.317 105.794 176.234C105.812 176.15 105.824 176.081 105.83 176.027C105.895 176.039 105.967 176.051 106.045 176.063C106.122 176.075 106.206 176.084 106.296 176.09C106.415 176.102 106.541 176.108 106.672 176.108C106.81 176.114 106.953 176.117 107.103 176.117C107.688 176.117 108.202 175.935 108.645 175.57C109.093 175.211 109.434 174.742 109.667 174.163C109.906 173.589 110.025 172.991 110.025 172.369C109.978 172.094 109.915 171.76 109.837 171.365C109.765 170.965 109.688 170.531 109.604 170.065C109.257 168.165 109.081 167.187 109.075 167.134C109.129 167.116 109.198 167.089 109.281 167.053C109.371 167.011 109.464 166.972 109.559 166.936C109.631 166.906 109.694 166.883 109.747 166.865C109.807 166.841 109.852 166.823 109.882 166.811C109.936 166.793 109.996 166.772 110.061 166.748C110.133 166.718 110.202 166.688 110.267 166.658C110.315 166.64 110.36 166.623 110.402 166.605C110.45 166.587 110.489 166.572 110.519 166.56Z" fill="#212121"/>
</svg>
